<svg width="1366" height="1366" viewBox="0 0 1366 1366" fill="none" xmlns="http://www.w3.org/2000/svg">
<path d="M638.006 1.06654C635.072 1.33318 625.74 2.26642 617.341 2.93302C423.626 20.398 242.177 124.921 127.255 285.572C63.2616 374.897 22.3323 476.22 6.86711 583.543C1.40098 621.006 0.734375 632.072 0.734375 682.867C0.734375 733.662 1.40098 744.727 6.86711 782.19C43.9302 1038.3 226.179 1253.48 473.355 1333.2C517.617 1347.47 564.279 1357.2 617.341 1363.07C638.006 1365.33 727.33 1365.33 747.995 1363.07C839.586 1352.93 917.178 1330.27 993.704 1291.21C1005.44 1285.21 1007.7 1283.61 1006.1 1282.27C1005.04 1281.47 955.041 1214.41 895.047 1133.36L785.991 986.037L649.338 783.79C574.145 672.601 512.284 581.677 511.751 581.677C511.218 581.543 510.685 671.401 510.418 781.124C510.018 973.238 509.885 980.971 507.485 985.504C504.019 992.037 501.352 994.703 495.753 997.636C491.486 999.769 487.754 1000.17 467.622 1000.17H444.558L438.425 996.303C434.425 993.77 431.492 990.437 429.493 986.57L426.693 980.571L426.959 713.264L427.359 445.823L431.492 440.624C433.625 437.824 438.158 434.224 441.358 432.491C446.824 429.825 448.957 429.558 472.022 429.558C499.219 429.558 503.752 430.625 510.818 438.357C512.818 440.49 586.81 551.946 675.335 686.2C763.86 820.453 884.915 1003.77 944.376 1093.76L1052.37 1257.34L1057.83 1253.74C1106.23 1222.28 1157.42 1177.49 1197.95 1130.82C1284.21 1031.77 1339.8 910.978 1358.47 782.19C1363.93 744.727 1364.6 733.662 1364.6 682.867C1364.6 632.072 1363.93 621.006 1358.47 583.543C1321.41 327.435 1139.16 112.256 891.981 32.5301C848.385 18.3982 801.989 8.6658 749.995 2.7997C737.196 1.4665 649.071 -2.42677e-05 638.006 1.06654ZM917.178 413.56C923.578 416.759 928.777 422.892 930.644 429.291C931.71 432.758 931.977 506.884 931.71 673.934L931.31 913.644L889.048 848.85L846.652 784.057V609.807C846.652 497.151 847.185 433.824 847.985 430.758C850.118 423.292 854.784 417.426 861.184 413.96C866.65 411.16 868.65 410.893 889.581 410.893C909.312 410.893 912.779 411.16 917.178 413.56Z" fill="white"/>
<path d="M1045.7 1260.28C1041.03 1263.21 1039.57 1265.21 1043.7 1262.94C1046.63 1261.21 1051.43 1257.61 1050.63 1257.48C1050.23 1257.48 1047.97 1258.81 1045.7 1260.28ZM1036.5 1266.28C1034.1 1268.14 1034.1 1268.28 1037.03 1266.81C1038.63 1266.01 1039.97 1265.08 1039.97 1264.81C1039.97 1263.74 1039.3 1264.01 1036.5 1266.28ZM1029.83 1270.28C1027.43 1272.14 1027.43 1272.28 1030.37 1270.81C1031.97 1270.01 1033.3 1269.08 1033.3 1268.81C1033.3 1267.74 1032.63 1268.01 1029.83 1270.28ZM1023.17 1274.28C1020.77 1276.14 1020.77 1276.28 1023.7 1274.81C1025.3 1274.01 1026.63 1273.08 1026.63 1272.81C1026.63 1271.74 1025.97 1272.01 1023.17 1274.28ZM1013.04 1279.61C1007.97 1282.27 1008.24 1283.34 1013.3 1280.81C1015.57 1279.61 1017.3 1278.41 1017.3 1278.14C1017.3 1277.21 1017.17 1277.34 1013.04 1279.61Z" fill="white"/>
</svg>
