<svg width="120" height="1060" viewBox="0 0 120 1060" fill="none" xmlns="http://www.w3.org/2000/svg">
<path d="M83.0084 716.626L36.463 716.514L36.5416 684.059L45.678 684.081L45.6266 705.286L55.172 705.309L55.2194 685.764L64.3784 685.786L64.3311 705.331L73.8993 705.354L73.9506 684.15L83.087 684.172L83.0084 716.626ZM83.1457 659.922L83.104 677.127L36.5587 677.014L36.6003 659.832C36.6118 655.09 37.5535 651.009 39.4254 647.589C41.2822 644.154 43.9553 641.509 47.4447 639.654C50.9189 637.799 55.0726 636.877 59.9059 636.888C64.7544 636.9 68.9188 637.842 72.3991 639.714C75.8795 641.571 78.5473 644.222 80.4026 647.665C82.2428 651.109 83.1571 655.195 83.1457 659.922ZM73.5404 665.853L73.5538 660.331C73.5601 657.725 73.126 655.519 72.2516 653.714C71.3621 651.894 69.9184 650.519 67.9207 649.59C65.9078 648.645 63.2271 648.169 59.8786 648.161C56.5302 648.153 53.8624 648.616 51.8753 649.551C49.873 650.485 48.4302 651.868 47.547 653.699C46.6487 655.515 46.1963 657.757 46.1898 660.423L46.1768 665.787L73.5404 665.853ZM36.7401 602.105L36.7673 590.878L66.7899 590.95C70.2596 590.959 73.2804 591.792 75.8521 593.45C78.4087 595.107 80.388 597.415 81.7899 600.373C83.1767 603.331 83.8653 606.765 83.8559 610.674C83.8463 614.628 83.141 618.081 81.7399 621.032C80.3236 623.983 78.3332 626.274 75.7687 627.904C73.1889 629.534 70.1642 630.345 66.6946 630.337L36.6719 630.264L36.6992 619.014L65.7445 619.084C67.3506 619.088 68.7832 618.743 70.0425 618.049C71.3018 617.34 72.2891 616.35 73.0043 615.079C73.7195 613.808 74.0791 612.332 74.0832 610.65C74.0872 608.968 73.7347 607.498 73.0257 606.238C72.3166 604.964 71.3342 603.969 70.0783 603.254C68.8225 602.539 67.3915 602.179 65.7855 602.175L36.7401 602.105ZM53.7503 541.618L53.7228 552.981C52.5557 553.13 51.502 553.438 50.5614 553.905C49.6209 554.373 48.8164 554.992 48.1478 555.763C47.4793 556.534 46.9695 557.45 46.6185 558.509C46.2523 559.554 46.0677 560.713 46.0646 561.985C46.0591 564.243 46.6074 566.191 47.7095 567.83C48.8117 569.454 50.4071 570.708 52.4959 571.592C54.5847 572.461 57.1139 572.899 60.0836 572.906C63.1745 572.913 65.7665 572.48 67.8595 571.606C69.9374 570.717 71.5086 569.471 72.5731 567.868C73.6225 566.249 74.1499 564.334 74.1552 562.122C74.1583 560.879 74.0019 559.75 73.6862 558.734C73.3705 557.703 72.9106 556.8 72.3064 556.026C71.6871 555.237 70.9386 554.591 70.061 554.089C69.1684 553.572 68.1616 553.213 67.0409 553.013L67.1366 541.65C69.1967 541.852 71.2256 542.455 73.2232 543.46C75.2208 544.45 77.0432 545.81 78.6906 547.542C80.3227 549.273 81.6207 551.382 82.5843 553.869C83.5481 556.341 84.026 559.176 84.0183 562.373C84.0081 566.585 83.0747 570.355 81.2182 573.684C79.3465 576.998 76.628 579.613 73.0628 581.528C69.4975 583.444 65.1619 584.395 60.0558 584.383C54.9346 584.371 50.5961 583.383 47.0402 581.42C43.4844 579.456 40.7862 576.806 38.9458 573.468C37.1054 570.13 36.1902 566.393 36.2003 562.257C36.2071 559.439 36.6073 556.834 37.401 554.442C38.1795 552.05 39.321 549.946 40.8254 548.132C42.3146 546.317 44.144 544.844 46.3134 543.713C48.4828 542.582 50.9618 541.884 53.7503 541.618ZM83.4691 526.371L83.4398 538.462L36.9326 522.645L36.9688 507.668L83.5522 492.076L83.5229 504.167L48.6783 515.014L48.6775 515.378L83.4691 526.371ZM65.1471 527.941L65.2083 502.668L73.7537 502.689L73.6925 527.961L65.1471 527.941ZM46.1376 494.309L37.0012 494.287L37.0965 454.946L46.2329 454.968L46.1987 469.082L83.6077 469.173L83.5808 480.264L46.1718 480.173L46.1376 494.309ZM37.1371 438.202L83.6824 438.315L83.6551 449.565L37.1098 449.452L37.1371 438.202ZM60.5332 387.264C65.6544 387.277 69.9929 388.272 73.5488 390.25C77.1046 392.229 79.8027 394.902 81.643 398.27C83.4834 401.623 84.3985 405.383 84.3884 409.549C84.3783 413.731 83.4374 417.494 81.5656 420.838C79.6939 424.182 76.9829 426.835 73.4327 428.796C69.8674 430.742 65.5317 431.708 60.4256 431.696C55.3044 431.684 50.9659 430.696 47.41 428.733C43.8542 426.754 41.1561 424.089 39.3157 420.736C37.4754 417.383 36.5602 413.615 36.5704 409.434C36.5805 405.267 37.5138 401.512 39.3704 398.168C41.227 394.808 43.938 392.148 47.5034 390.187C51.0687 388.226 55.412 387.252 60.5332 387.264ZM60.5054 398.764C57.4751 398.757 54.9134 399.182 52.8204 400.041C50.7275 400.884 49.1412 402.108 48.0615 403.711C46.9819 405.3 46.4394 407.215 46.434 409.457C46.4286 411.685 46.9618 413.603 48.0337 415.211C49.1056 416.82 50.6859 418.059 52.7747 418.927C54.8636 419.781 57.4231 420.211 60.4534 420.219C63.4837 420.226 66.0453 419.808 68.1383 418.965C70.2313 418.106 71.8176 416.875 72.8973 415.272C73.9769 413.668 74.5194 411.753 74.5248 409.525C74.5302 407.283 73.997 405.365 72.9251 403.772C71.8532 402.163 70.2729 400.932 68.184 400.078C66.0952 399.21 63.5357 398.772 60.5054 398.764ZM37.3724 341.026L83.9177 341.139L83.8946 350.684L56.9862 369.142L56.9855 369.437L83.849 369.502L83.8218 380.752L37.2765 380.64L37.2999 370.958L64.1624 352.705L64.1633 352.318L37.3452 352.253L37.3724 341.026Z" fill="white"/>
<rect x="4.5" y="4.5" width="111" height="1051" rx="40.5" stroke="url(#paint0_linear_144_5)" stroke-width="9"/>
<defs>
<linearGradient id="paint0_linear_144_5" x1="60" y1="0" x2="60" y2="1060" gradientUnits="userSpaceOnUse">
<stop stop-color="#6F109B"/>
<stop offset="0.515625" stop-color="#9B1096"/>
<stop offset="0.958333" stop-color="#FAFF0D"/>
</linearGradient>
</defs>
</svg>
