<svg width="120" height="1060" viewBox="0 0 120 1060" fill="none" xmlns="http://www.w3.org/2000/svg">
<path d="M83.0084 716.626L36.463 716.514L36.5416 684.059L45.678 684.081L45.6266 705.286L55.172 705.309L55.2194 685.764L64.3784 685.786L64.3311 705.331L73.8993 705.354L73.9506 684.15L83.087 684.172L83.0084 716.626ZM36.5863 665.628L51.3114 657.163L51.3122 656.8L36.6285 648.173L36.659 635.582L59.8977 649.684L83.2055 635.24L83.1742 648.149L68.2895 656.841L68.2886 657.204L83.131 665.968L83.1 678.786L59.8623 664.298L36.5556 678.309L36.5863 665.628ZM83.2184 629.877L36.6731 629.764L36.7197 610.537C36.7281 607.052 37.4172 604.046 38.787 601.519C40.1416 598.977 42.0327 597.019 44.4603 595.646C46.8727 594.273 49.6774 593.591 52.8744 593.599C56.0865 593.606 58.8954 594.318 61.3011 595.733C63.6916 597.132 65.5429 599.129 66.8548 601.723C68.1667 604.317 68.8183 607.395 68.8097 610.955L68.781 622.819L59.9173 622.798L59.941 613.025C59.9451 611.328 59.6531 609.91 59.0649 608.773C58.4768 607.62 57.6532 606.747 56.594 606.153C55.5197 605.56 54.2704 605.261 52.8462 605.258C51.4068 605.254 50.1636 605.547 49.1168 606.135C48.0547 606.723 47.2344 607.593 46.6559 608.743C46.0773 609.893 45.786 611.309 45.782 612.991L45.7685 618.536L83.2457 618.627L83.2184 629.877ZM83.3196 588.127L36.7742 588.014L36.8528 555.56L45.9892 555.582L45.9378 576.786L55.4833 576.809L55.5306 557.264L64.6897 557.286L64.6423 576.832L74.2105 576.855L74.2618 555.65L83.3982 555.672L83.3196 588.127ZM83.4152 548.627L36.8699 548.514L36.9165 529.287C36.9249 525.802 37.561 522.796 38.8247 520.269C40.0733 517.726 41.8659 515.769 44.2026 514.396C46.5241 513.022 49.2757 512.34 52.4575 512.347C55.6848 512.355 58.4255 513.066 60.6797 514.481C62.9187 515.895 64.626 517.9 65.8015 520.493C66.9619 523.087 67.5378 526.157 67.5292 529.702L67.4997 541.861L58.6361 541.84L58.6605 531.771C58.6646 530.075 58.4484 528.657 58.0117 527.52C57.56 526.367 56.8803 525.494 55.9726 524.901C55.0498 524.308 53.8687 524.01 52.4293 524.006C50.9899 524.003 49.7998 524.295 48.859 524.884C47.903 525.473 47.1888 526.342 46.7163 527.493C46.2287 528.643 45.9828 530.059 45.9787 531.741L45.9653 537.286L83.4425 537.377L83.4152 548.627ZM62.206 522.371L83.5068 510.832L83.477 523.104L62.1769 534.416L62.206 522.371ZM36.9998 494.889L83.5451 495.002L83.5179 506.252L36.9725 506.139L36.9998 494.889ZM83.5622 487.94L37.0169 487.827L37.0955 455.372L46.2318 455.395L46.1805 476.599L55.7259 476.622L55.7732 457.077L64.9323 457.099L64.885 476.644L74.4531 476.668L74.5045 455.463L83.6408 455.485L83.5622 487.94ZM37.2085 408.713L83.7538 408.826L83.7307 418.372L56.8223 436.829L56.8216 437.125L83.6851 437.19L83.6579 448.44L37.1125 448.327L37.136 438.645L63.9985 420.392L63.9994 420.006L37.1813 419.941L37.2085 408.713ZM54.1915 359.431L54.164 370.794C52.997 370.943 51.9432 371.251 51.0027 371.718C50.0621 372.186 49.2576 372.805 48.5891 373.576C47.9205 374.347 47.4107 375.263 47.0597 376.322C46.6935 377.367 46.5089 378.526 46.5058 379.798C46.5003 382.056 47.0487 384.004 48.1508 385.643C49.2529 387.267 50.8483 388.521 52.9371 389.405C55.0259 390.274 57.5552 390.712 60.5249 390.719C63.6158 390.726 66.2077 390.293 68.3008 389.419C70.3787 388.531 71.9499 387.284 73.0144 385.681C74.0638 384.062 74.5911 382.147 74.5965 379.935C74.5995 378.692 74.4431 377.563 74.1274 376.547C73.8117 375.516 73.3518 374.613 72.7476 373.839C72.1283 373.05 71.3799 372.404 70.5023 371.902C69.6096 371.385 68.6029 371.026 67.4822 370.826L67.5779 359.463C69.638 359.665 71.6668 360.268 73.6644 361.273C75.662 362.263 77.4845 363.623 79.1318 365.355C80.764 367.086 82.0619 369.195 83.0256 371.682C83.9893 374.154 84.4673 376.989 84.4595 380.186C84.4493 384.398 83.516 388.168 81.6594 391.497C79.7877 394.811 77.0693 397.426 73.504 399.341C69.9388 401.257 65.6031 402.208 60.4971 402.196C55.3759 402.184 51.0373 401.196 47.4815 399.233C43.9256 397.27 41.2275 394.619 39.3871 391.281C37.5467 387.943 36.6315 384.206 36.6415 380.07C36.6483 377.252 37.0486 374.647 37.8422 372.255C38.6208 369.863 39.7622 367.759 41.2666 365.945C42.7559 364.13 44.5852 362.657 46.7546 361.526C48.924 360.395 51.403 359.697 54.1915 359.431ZM83.8889 353.065L37.3435 352.952L37.4221 320.498L46.5585 320.52L46.5071 341.724L56.0525 341.748L56.0999 322.202L65.2589 322.224L65.2116 341.77L74.7798 341.793L74.8311 320.588L83.9675 320.611L83.8889 353.065Z" fill="white"/>
<rect x="4.5" y="4.5" width="111" height="1051" rx="40.5" stroke="url(#paint0_linear_144_6)" stroke-width="9"/>
<defs>
<linearGradient id="paint0_linear_144_6" x1="60" y1="0" x2="60" y2="1060" gradientUnits="userSpaceOnUse">
<stop offset="0.0520833" stop-color="#0D8BFF"/>
<stop offset="0.541667" stop-color="#9B1096"/>
<stop offset="0.979167" stop-color="#6F109B"/>
</linearGradient>
</defs>
</svg>
